<svg xmlns="http://www.w3.org/2000/svg" width="246" height="373" viewBox="0 0 246 373">
  <path fill="#E7E1E1" fill-rule="evenodd" d="M69.432467,353.0625 C60.106768,326.14706 54.188891,311.95861 45.840764,296.5 C41.942416,289.28125 37.767914,280.80272 36.564091,277.65883 C35.36027,274.51492 32.718712,269.67176 30.693965,266.89624 C25.171076,259.32546 16.360553,246.8742 10.070067,237.75 C3.546059,228.28708 1.9017811,220.76466 5.3035159,215.94346 C6.5256535,214.21136 7.494697,210.29452 7.494697,207.0868 C7.494697,203.92366 8.050397,200.37141 8.729586,199.1929 C9.62407,197.64082 8.701856,194.64845 5.3841074,188.33757 C-0.7923049,176.58909 -0.6858744,172.77672 5.9548766,167.89251 C12.574092,163.02412 16.965541,161.5 24.37354,161.5 C29.629628,161.5 30.551763,161.06337 32.433872,157.68352 C36.163324,150.98625 39.247796,149 45.918665,149 C50.635591,149 52.8011,149.70945 55.372264,152.09712 C58.219204,154.74089 59.545999,155.0875 64.436346,154.46504 C75.564189,153.04865 86.40266,160.43272 83.093996,167.1762 C82.0495,169.30502 80.438978,170.28689 77.855323,170.37 C75.803531,170.436 71.096152,171.22334 67.39448,172.11965 L60.664167,173.7493 L68.613199,173.05472 C74.086687,172.57645 76.284878,172.77687 75.671641,173.6983 C75.181817,174.4343 75.541989,175.29641 76.472014,175.61412 C77.402046,175.93182 76.345795,176.59157 74.124792,177.08022 C71.903789,177.56887 68.572285,178.48565 66.721449,179.1175 C63.982199,180.05264 64.410541,180.17189 69.024404,179.75866 C72.7835,179.42199 75.214661,179.83526 76.242832,180.98571 C77.431482,182.31574 77.365261,182.83877 75.95897,183.22775 C74.950172,183.50679 72.004744,184.34711 69.413574,185.09516 L64.702355,186.45524 L70.620836,185.94694 C74.573136,185.6075 77.177622,186.03144 78.460709,187.22291 C80.606216,189.2153 80.725442,189.14594 71.432667,191.31195 L66.048417,192.56695 L72.459029,192.42409 C75.984867,192.34549 79.56909,192.93076 80.423973,193.72464 C82.111666,195.29189 82.062285,195.31996 73.451761,197.6881 L68.740542,198.98382 L74.408654,198.49241 C78.14307,198.16865 80.603855,198.59081 81.621786,199.72979 C83.195496,201.49067 81.315178,202.64424 74.124792,204.32915 C72.554971,204.69701 73.677275,205.05707 76.816918,205.19285 C81.126688,205.37925 81.663928,205.6401 79.509043,206.5 C77.0227,207.49217 77.074147,207.59045 80.182074,207.78572 C82.826087,207.95186 82.279397,208.36675 77.630977,209.72179 C69.502456,212.09129 69.588709,212.42085 78.164537,211.76044 C84.076836,211.30512 85.566324,211.5625 85.566324,213.03937 C85.566324,214.19992 82.935191,215.58206 78.499496,216.75158 L71.432667,218.61483 L79.63594,218.02645 L87.83921,217.43808 L87.959494,221.36654 C88.025614,223.52719 87.514249,224.97043 86.823051,224.57373 C86.131853,224.17702 85.566324,223.0419 85.566324,222.05122 C85.566324,219.97636 84.204195,219.87807 76.990108,221.43239 C70.187675,222.898 67.662366,221.94355 68.433334,218.19831 C68.767139,216.57674 68.587297,215.25 68.033687,215.25 C67.480078,215.25 66.598794,212.57812 66.07528,209.3125 C65.551769,206.04687 64.522253,202.69651 63.787468,201.86725 C63.052684,201.038 62.858654,199.74774 63.356292,199 C63.85393,198.25226 63.535447,196.82854 62.648552,195.83616 C61.761656,194.84379 61.380191,193.19894 61.80085,192.18095 C62.221509,191.16296 62.049116,190.03359 61.417753,189.67124 C59.673662,188.67025 56.968169,172.55722 58.331598,171.2911 C58.980355,170.68865 62.193494,169.7646 65.471911,169.23766 C70.708976,168.39592 71.378513,167.92734 70.986614,165.37816 C70.70409,163.54044 71.074204,162.783 71.99616,163.31214 C72.79674,163.77161 73.451761,164.9249 73.451761,165.875 C73.451761,168.3314 75.446813,169.1589 78.686161,168.04611 C81.298237,167.1488 81.159232,166.85186 76.516696,163.41186 C68.277078,157.30651 54.236997,157.14296 56.732238,163.1814 C57.585939,165.24734 55.204738,167.15959 54.011345,165.36644 C53.230606,164.19332 43.955688,164.7244 42.558109,166.02224 C42.151759,166.39959 41.819292,168.34896 41.819292,170.35416 C41.819292,173.65997 42.241926,174 46.350914,174 C50.458816,174 50.822388,174.2922 50.239248,177.125 C49.885438,178.84375 50.188298,180.25 50.912279,180.25 C51.636256,180.25 51.944922,181.62806 51.598202,183.31238 C51.194965,185.27124 51.678492,186.628 52.940061,187.07756 C54.135264,187.50347 54.636768,188.75889 54.212939,190.26395 C53.82828,191.6299 54.091403,193.07915 54.797664,193.48449 C55.503921,193.88984 55.959689,195.15601 55.810485,196.29824 C55.661279,197.44046 55.991939,199.5 56.54528,200.875 C57.098623,202.25 58.120537,204.80247 58.816202,206.54717 C61.051251,212.15256 61.408328,223.83676 59.377438,224.91185 C58.37675,225.44159 57.348301,227.28125 57.091993,229 C56.712615,231.54404 55.514989,232.3737 50.649929,233.46279 C46.361067,234.4229 45.332772,235.03539 47.007691,235.63224 C48.397635,236.12755 52.687191,234.98408 57.61408,232.80489 C62.163997,230.79244 66.41812,229.45091 67.067686,229.82371 C67.717251,230.19651 68.569025,229.36408 68.960516,227.97385 C69.561283,225.84046 70.439542,225.55596 74.590681,226.15001 C77.29578,226.53713 79.747172,227.04225 80.038218,227.2725 C80.526543,227.65884 79.83705,227.92856 74.124792,229.58577 C72.972778,229.91999 72.096847,231.66459 72.085087,233.64827 C72.069047,236.35231 71.77448,236.70829 70.759636,235.25 C69.889744,234 69.447926,233.89584 69.434186,234.9375 C69.422876,235.79687 68.573894,236.5 67.54762,236.5 C66.521345,236.5 60.951167,237.97542 55.169446,239.77872 L44.657226,243.05746 L41.55568,239.70902 C39.849831,237.86739 38.454135,235.54821 38.454135,234.5553 C38.454135,233.56239 37.534003,232.75 36.409396,232.75 C33.6613,232.75 35.13468,238.6217 38.831976,242.40444 C41.162982,244.7893 42.523261,245.09244 48.414273,244.53976 C52.190377,244.18551 56.642805,243.85964 58.308558,243.8156 C59.97431,243.7716 61.337198,243.49566 61.337198,243.20249 C61.337198,242.90931 59.97431,242.16073 58.308558,241.53895 C55.313294,240.42092 55.311707,240.40759 58.164544,240.32924 C59.751089,240.28564 61.385188,241.06315 61.795876,242.05701 C62.331759,243.35384 63.852304,243.66665 67.181456,243.16496 L71.820331,242.4659 L74.036878,251.51582 C76.122984,260.03317 76.116018,260.70675 73.91852,262.96166 C71.779004,265.15709 71.773472,265.28992 73.8524,264.5491 C75.274509,264.04232 76.42203,264.4686 76.927326,265.69145 C77.477378,267.02256 78.870678,267.45035 81.313375,267.03811 C84.791594,266.45112 85.25656,267.17001 97.680889,292.34444 C104.714059,306.59521 110.368709,319.07224 110.246759,320.07117 C110.124829,321.07011 111.487709,324.03907 113.275399,326.66887 C115.063109,329.29866 116.497559,332.44587 116.463089,333.66266 C116.428589,334.87945 114.840439,333.0625 112.933799,329.625 C108.852369,322.26652 108.708819,322.09241 107.584539,323.13646 C107.108879,323.57817 107.427199,324.73124 108.291929,325.69881 C109.529249,327.0833 109.363089,327.6366 107.511919,328.29626 C105.486079,329.01818 105.434619,329.31497 107.141049,330.43516 C108.777029,331.5091 108.711779,331.61316 106.766809,331.03215 C104.246669,330.27931 103.655699,331.49179 105.594449,333.4375 C106.503749,334.35006 120.045649,361.83061 124.196949,371.1875 C125.438699,373.98639 121.020269,372.83104 119.416489,369.9375 L117.857639,367.125 L118.628469,369.9375 C119.854319,374.41016 116.853859,373.21399 113.925289,368.0625 C112.459649,365.48437 111.233719,363.82481 111.201009,364.37458 C111.168309,364.92434 112.065669,367.03371 113.195169,369.06208 C114.925469,372.16931 114.949749,372.75 113.349409,372.75 C111.669989,372.75 104.504499,359.23511 93.632877,335.5625 C91.975272,331.95312 90.08792,329 89.438752,329 C88.789584,329 88.409887,329.70312 88.594965,330.5625 C88.786924,331.45379 87.659193,332.08524 85.969766,332.03243 C84.340825,331.98153 83.264293,332.32488 83.577475,332.79545 C83.890657,333.26603 81.773065,334.64509 78.871715,335.86005 C73.46443,338.12438 69.413574,337.77282 69.413574,335.03923 C69.413574,333.84205 69.772524,333.83334 71.028849,334.99993 C71.91725,335.82494 73.128706,336.49993 73.720974,336.49993 C74.313241,336.49993 73.586367,335.37493 72.105699,333.99993 C70.62503,332.62493 69.413574,330.90423 69.413574,330.17616 C69.413574,329.44808 68.704909,329.25911 67.838762,329.75622 C66.787814,330.35938 66.542869,329.98507 67.102421,328.63097 C68.227846,325.90746 63.42726,312.77692 62.218461,315.27238 C61.724909,316.29129 61.645981,315.43743 62.043067,313.37493 C62.514309,310.92726 62.344778,310.20945 61.554906,311.30802 C59.899199,313.61084 55.383203,296.33286 56.403081,291.5974 C57.280986,287.52112 55.047903,278.81875 52.77446,277.45657 C51.671321,276.79561 51.71332,276.53285 52.924307,276.51907 C55.278388,276.49237 55.026783,271.7113 52.550265,269.41151 C50.909432,267.88779 50.093032,267.81042 48.512077,269.02886 C47.196012,270.04317 46.53051,270.09963 46.53051,269.197 C46.53051,268.4495 47.741967,267.23584 49.222636,266.49996 C52.264495,264.98818 52.584043,262.40591 50.43702,256.68649 C49.4373,254.02336 48.079795,252.74996 46.240472,252.74996 C43.731191,252.74996 37.197653,247.35348 31.30441,240.41329 C29.828173,238.67478 28.042712,237.83491 26.779836,238.28494 C25.311928,238.80803 24.925098,238.4685 25.474425,237.13914 C26.479778,234.7062 21.277773,234.62827 17.874717,237.02526 C15.613651,238.61791 15.695565,238.87931 19.22078,241.32091 C21.28528,242.75081 22.222855,243.93855 21.304281,243.96032 C18.995229,244.01502 26.767474,255.49258 32.533929,260.54348 C35.074223,262.76856 36.85034,265.32065 36.480856,266.2148 C36.111373,267.10895 37.009935,269.92117 38.477663,272.46421 C39.945393,275.00727 41.14626,277.6268 41.14626,278.28541 C41.14626,278.94401 45.377169,287.38985 50.548281,297.05391 C57.12286,309.34087 62.992422,323.21996 70.066188,343.20568 C75.629924,358.92511 80.182074,372.00324 80.182074,372.26822 C80.182074,372.5332 79.298217,372.75 78.217948,372.75 C76.868359,372.75 74.119547,366.59015 69.432467,353.0625 L69.432467,353.0625 Z M116.01197,361.92301 C114.87316,359.9716 113.91717,358.77041 113.88753,359.25369 C113.79643,360.73952 116.92797,366.54316 117.5228,365.99079 C117.83064,365.70491 117.15077,363.87441 116.01197,361.92301 L116.01197,361.92301 Z M108.6062,356.93045 C107.10472,354.28745 105.84947,352.52779 105.81676,353.02009 C105.72126,354.45749 110.22526,362.76753 110.80705,362.22726 C111.09806,361.95701 110.10768,359.57346 108.6062,356.93045 L108.6062,356.93045 Z M109.28165,348.17301 C108.14285,346.2216 107.18686,345.02041 107.15722,345.50369 C107.06612,346.98952 110.19765,352.79316 110.79247,352.24079 C111.10032,351.95491 110.42045,350.12441 109.28165,348.17301 L109.28165,348.17301 Z M103.22195,345.68045 C101.72047,343.03745 100.46522,341.27779 100.43251,341.77009 C100.33701,343.20749 104.84101,351.51753 105.4228,350.97726 C105.71381,350.70701 104.72343,348.32346 103.22195,345.68045 L103.22195,345.68045 Z M103.8974,336.92301 C102.7586,334.9716 101.80261,333.77041 101.77297,334.25369 C101.68187,335.73952 104.8134,341.54316 105.40822,340.99079 C105.71607,340.70491 105.0362,338.87441 103.8974,336.92301 L103.8974,336.92301 Z M97.16709,333.17301 C96.028288,331.2216 95.072293,330.02041 95.042658,330.50369 C94.951558,331.98952 98.08309,337.79316 98.67791,337.24079 C98.98576,336.95491 98.30589,335.12441 97.16709,333.17301 L97.16709,333.17301 Z M79.232378,327.39656 C80.314618,327.0109 81.728195,327.14438 82.373659,327.69317 C83.019123,328.24196 88.590593,326.51868 94.754708,323.86362 C103.35215,320.16049 105.85418,318.52262 105.49841,316.83064 C105.13423,315.09861 103.68177,314.625 98.73429,314.625 C95.269098,314.625 91.860146,314.0625 91.158837,313.375 C90.457538,312.6875 86.489411,305.11249 82.340781,296.54165 C74.964612,281.30286 73.314978,274.99859 76.261171,273.30769 C79.163312,271.64206 75.323489,270.12629 71.564232,271.45355 C69.544643,272.1666 66.5688,272.68475 64.951242,272.605 C62.394625,272.47895 62.343648,272.38071 64.561216,271.8534 C66.63868,271.3594 66.763609,271.02307 65.234248,270.04152 C63.884626,269.17532 64.208353,269.0588 66.384933,269.62735 C68.166211,270.09264 69.413574,269.86896 69.413574,269.08424 C69.413574,268.3504 67.747821,267.71192 65.711902,267.6654 C62.290185,267.5872 62.218804,267.4867 64.76808,266.33659 C66.284898,265.65227 68.293332,263.95126 69.231267,262.55657 C70.676798,260.4071 70.56425,259.75864 68.492511,258.30014 C65.31611,256.06396 63.333093,256.07511 60.891054,258.34294 C59.142426,259.96677 58.808257,259.94794 58.079558,258.1845 C57.11013,255.83849 59.482781,252.75005 62.254488,252.75005 C63.318032,252.75005 63.87234,253.22466 63.486283,253.80472 C63.100227,254.3848 64.881662,255.45715 67.445029,256.18773 C71.292323,257.28424 72.105699,257.19637 72.105699,255.68427 C72.105699,254.6768 71.568604,254.16076 70.912155,254.53751 C70.255706,254.91427 68.892818,254.27965 67.883514,253.12725 C66.299271,251.31839 66.341696,251.1338 68.193874,251.77689 C69.891784,252.36642 70.203453,251.86179 69.687958,249.35755 C69.065956,246.33596 68.726436,246.22789 62.158251,246.9608 C58.375167,247.38294 53.917029,247.73321 52.251276,247.73919 C48.204828,247.75369 48.391705,249.95389 53.260823,259.62505 C56.512593,266.0838 57.299011,269.31129 57.299011,276.19792 C57.299011,280.90159 57.837577,285.28443 58.495825,285.93755 C59.154073,286.59068 61.199582,292.75005 63.0414,299.62505 C67.625394,316.73584 74.961585,333.87932 76.28168,330.56544 C76.822324,329.20824 78.150139,327.78226 79.232378,327.39661 L79.232378,327.39656 Z M71.669426,318.49721 C70.824671,316.45291 71.817359,315.25 74.349137,315.25 C75.336249,315.25 76.143886,316.375 76.143886,317.75 C76.143886,320.5923 72.768122,321.15604 71.669426,318.49721 L71.669426,318.49721 Z M106.35522,327.8628 C106.77148,327.23735 106.7571,325.86661 106.32322,324.81672 C105.18865,322.07111 101.88109,323.68046 102.69781,326.58072 C103.42193,329.15217 105.10452,329.74199 106.35517,327.8628 L106.35522,327.8628 Z M101.40413,310.45721 C102.67928,309.70557 100.64618,304.69491 93.327753,290.55266 L83.54723,271.65261 L80.51859,273.96417 C78.852837,275.23552 77.489949,276.81846 77.489949,277.48181 C77.489949,278.14515 79.674212,283.11749 82.343868,288.53145 C85.013524,293.9454 88.614563,301.32812 90.346171,304.9375 C92.835665,310.12661 94.143887,311.496 96.597264,311.48086 C98.30376,311.47086 100.46685,311.00969 101.40413,310.45721 L101.40413,310.45721 Z M60.882607,304.9375 C60.509192,304.07812 60.203673,304.78125 60.203673,306.5 C60.203673,308.21875 60.509192,308.92187 60.882607,308.0625 C61.256021,307.20312 61.256021,305.79687 60.882607,304.9375 L60.882607,304.9375 Z M59.564587,300.01562 C59.134889,299.01846 58.815931,299.31465 58.751341,300.77084 C58.692891,302.08854 59.011034,302.82682 59.45832,302.41146 C59.905605,301.99609 59.953426,300.91796 59.564594,300.01562 L59.564587,300.01562 Z M58.23182,293.08629 C57.890534,291.87008 57.588856,292.5625 57.561424,294.625 C57.533984,296.6875 57.813226,297.68257 58.181943,296.83629 C58.55066,295.99 58.573104,294.3025 58.231813,293.08629 L58.23182,293.08629 Z M16.099854,234.3125 C13.909055,232.27807 13.90348,232.09651 16.020174,231.7179 C17.271958,231.49399 17.977686,230.83229 17.588458,230.24745 C17.199231,229.66261 20.317197,228.7854 24.517274,228.29809 C30.651095,227.5864 33.864555,227.95727 40.847794,230.18282 C47.080269,232.1691 49.95396,232.57086 50.997494,231.6018 C51.798124,230.85831 52.007858,230.25 51.463576,230.25 C50.919294,230.25 51.122324,229.125 51.914754,227.75 C53.746266,224.57201 51.475565,220.1883 48.177583,220.53519 C43.734975,221.00245 29.677352,218.88542 25.666535,217.1451 C23.445532,216.18139 20.416891,215.13911 18.936222,214.82895 C16.385325,214.29457 16.402978,214.21761 19.272738,213.36171 C23.445565,212.11717 23.06814,210.67902 17.926675,208.23269 C15.520589,207.08785 13.106952,205.52652 12.563037,204.76309 C11.417553,203.15526 11.138902,204.35482 11.49645,209.35461 C11.633311,211.26839 10.513432,214.77305 9.007833,217.14275 C6.6903289,220.7903 6.4991234,222.07824 7.761449,225.53814 C9.830407,231.20892 14.015462,236.5 16.431904,236.5 C18.10614,236.5 18.048816,236.12236 16.099848,234.3125 L16.099854,234.3125 Z M43.838385,226.5 C43.838385,225.125 44.315212,224 44.898,224 C45.480787,224 46.048871,225.125 46.160407,226.5 C46.271942,227.875 45.795114,229 45.100792,229 C44.406468,229 43.838385,227.875 43.838385,226.5 L43.838385,226.5 Z M27.364813,231.89115 C26.07786,231.57829 23.654948,231.56694 21.980563,231.86595 C20.30618,232.16494 21.359141,232.42093 24.320479,232.4348 C27.281816,232.4487 28.651768,232.20404 27.364813,231.89118 L27.364813,231.89115 Z M28.172407,213.375 C27.746267,212.34375 26.782517,211.5 26.03074,211.5 C25.242884,211.5 25.373707,212.29426 26.339572,213.375 C27.261206,214.40625 28.224957,215.25 28.481239,215.25 C28.73752,215.25 28.598549,214.40625 28.172407,213.375 L28.172407,213.375 Z M35.76201,214.77079 C35.76201,214.50722 34.549718,213.99719 33.068027,213.63736 C31.586337,213.27755 30.713494,213.49319 31.128374,214.11657 C31.852894,215.20521 35.76201,215.75712 35.76201,214.77079 L35.76201,214.77079 Z M51.241729,213.7882 C51.241729,213.32796 52.692794,211.51705 54.466318,209.76395 L57.690908,206.57649 L54.028429,205.28339 C52.014067,204.57219 49.485448,203.17262 48.409277,202.17326 C47.333107,201.17389 45.53072,200.68474 44.403974,201.08625 C43.277228,201.48777 41.023275,200.70529 39.395193,199.3474 C37.437658,197.71474 34.212938,196.7922 29.87444,196.62365 C22.617439,196.34171 20.677771,195.12101 18.718257,189.60267 C17.881878,187.24729 15.696222,185.11475 12.781158,183.80985 L8.167728,181.74471 L12.205916,181.18464 L16.244103,180.62458 L11.8694,180.43729 C6.9828808,180.22809 5.770871,177.77262 10.523338,177.71025 C12.18909,177.68835 14.73401,176.8404 16.178715,175.82584 C19.031189,173.82266 26.804746,174.45554 30.299631,176.97549 C31.782361,178.04459 32.001947,178.00611 31.229738,176.8125 C30.673766,175.95312 30.860356,175.25 31.644382,175.25 C32.428408,175.25 33.069885,174.49342 33.069885,173.56874 C33.069885,172.64404 34.281341,170.86936 35.76201,169.625 C38.855013,167.02564 39.177549,165.72079 36.771557,165.5408 C28.748343,164.94059 19.478218,165.17955 18.021563,166.02413 C17.043961,166.59094 15.523911,167.15634 14.643675,167.28055 C12.920158,167.52376 3.4565092,173.93153 3.4565092,174.85529 C3.4565092,175.1625 5.6764581,179.73636 8.38973,185.01942 C11.103001,190.30249 13.374481,196.56129 13.437465,198.92785 C13.579125,204.25069 18.719189,207.47381 28.841564,208.5871 C32.581569,208.99844 36.756321,210.29941 38.118793,211.47816 C39.481266,212.65691 41.389129,213.86685 42.358489,214.1669 C45.043799,214.99813 51.241729,214.7339 51.241729,213.7882 L51.241729,213.7882 Z M44.58649,211.6128 C43.673149,210.24045 45.064165,206.5 46.487863,206.5 C47.046327,206.5 47.213771,207.90625 46.859961,209.625 C46.163564,213.00799 45.75359,213.36644 44.58649,211.6128 L44.58649,211.6128 Z M83.855704,213.24479 C83.408418,212.82942 82.247439,212.78502 81.27575,213.14619 C80.201951,213.54522 80.52091,213.84142 82.088997,213.90139 C83.507969,213.95559 84.302988,213.66023 83.855704,213.24487 L83.855704,213.24479 Z M78.471453,200.74479 C78.024168,200.32942 76.863189,200.28502 75.8915,200.64619 C74.817701,201.04522 75.13666,201.34142 76.704746,201.40139 C78.123719,201.45559 78.918738,201.16023 78.471453,200.74487 L78.471453,200.74479 Z M77.125391,194.49479 C76.678105,194.07942 75.517126,194.03502 74.545437,194.39619 C73.471639,194.79522 73.790597,195.09142 75.358684,195.15139 C76.777657,195.20559 77.572676,194.91023 77.125391,194.49487 L77.125391,194.49479 Z M29.209332,188.74402 C30.5487,187.8633 30.20403,187.7063 27.945221,188.16822 C25.381111,188.69259 25.116489,188.49355 26.427462,187.02666 C27.668207,185.63834 27.611466,185.24131 26.167875,185.21025 C24.931493,185.18365 25.184672,184.5635 26.93336,183.33525 C29.125288,181.79567 29.192302,181.5 27.349317,181.5 C24.14458,181.5 23.261916,183.57469 24.293713,188.68212 C24.900121,191.68387 25.569747,192.65671 26.287345,191.57847 C26.881636,190.68551 28.196529,189.41001 29.209331,188.74402 L29.209332,188.74402 Z M25.571961,180.39211 C26.411047,179.13134 21.08359,177.52884 19.353706,178.52167 C18.729774,178.87976 18.567776,179.69637 18.993712,180.33637 C19.978066,181.81542 24.598648,181.85457 25.571961,180.39217 L25.571961,180.39211 Z M52.810939,160.96278 C52.247599,159.49342 50.871982,159.55451 43.838385,161.3612 C39.306677,162.52525 39.397635,162.5662 46.225502,162.43595 C50.636474,162.35185 53.129658,161.79409 52.810939,160.96278 L52.810939,160.96278 Z M50.201517,156.66211 C52.207638,155.6163 52.266132,155.31222 50.568698,154.75341 C44.427359,152.73161 40.855136,153.42383 37.630496,157.26055 L34.36482,161.1461 L41.090031,159.5261 C44.788896,158.6351 48.889065,157.3463 50.201517,156.66211 L50.201517,156.66211 Z M69.049016,156.99479 C68.60173,156.57943 67.440751,156.53502 66.469062,156.89619 C65.395264,157.29522 65.714222,157.59142 67.282309,157.65139 C68.701281,157.70559 69.4963,157.41024 69.049016,156.99487 L69.049016,156.99479 Z M125.84155,368.07492 C124.92773,365.50363 121.26417,357.08922 117.7003,349.37624 C114.13644,341.66325 110.85716,333.78266 110.41302,331.86381 C109.58664,328.29348 119.30759,346.1276 124.0094,356.80781 C125.4459,360.07086 127.03988,362.74274 127.55157,362.74531 C128.06324,362.74731 129.09529,360.35938 129.84501,357.4375 L131.20813,352.125 L130.63429,358.375 C130.31867,361.8125 129.94858,365.1875 129.81184,365.875 C129.67511,366.5625 130.00213,368.39063 130.53855,369.9375 C131.25411,372.00093 130.97974,372.75 129.50845,372.75 C128.38556,372.75 126.77187,370.69263 125.84155,368.07492 L125.84155,368.07492 Z M157.55002,368.94495 C156.17383,366.47363 155.72315,362.88836 156.10962,357.48661 C157.06077,344.19242 159.79204,327.20758 161.2432,325.5625 C162.19783,324.48031 162.15708,324 161.11062,324 C158.9364,324 159.25038,320.82536 161.60401,319.01143 C162.70636,318.16184 163.27635,316.96796 162.87063,316.35836 C162.46493,315.74876 163.07731,315.25 164.23151,315.25 C165.46413,315.25 166.39448,314.08948 166.4862,312.4375 C166.60882,310.22899 166.77721,310.10766 167.27038,311.87255 C167.61579,313.1087 167.13019,314.9797 166.19125,316.03031 C165.17771,317.16439 164.99582,318.28275 165.74357,318.78278 C166.43631,319.246 167.70387,320.75 168.56039,322.125 C169.41692,323.5 170.76171,324.48997 171.54884,324.32494 C172.33598,324.15991 173.58933,325.08219 174.33408,326.37446 C175.4421,328.29706 175.14363,328.85959 172.69169,329.46995 C168.12458,330.60684 168.03651,330.5509 167.10075,325.91885 C166.61952,323.53671 165.57861,321.21627 164.78764,320.76231 C163.8418,320.21946 163.66732,320.86681 164.27794,322.65345 C164.78861,324.14754 164.53786,326.11802 163.72076,327.03231 C162.58037,328.30834 162.86733,328.84817 164.95562,329.3553 C168.12866,330.12585 168.59579,333.75072 165.65702,334.79796 C164.54652,335.1937 163.63793,336.46979 163.63793,337.63374 C163.63793,338.79767 162.9754,340.36525 162.16563,341.11722 C161.35586,341.8692 160.98273,343.52857 161.33645,344.80472 C161.85076,346.66025 162.01084,346.5433 162.13572,344.22085 C162.24623,342.1656 162.98043,341.43984 164.64748,341.73796 C167.82905,342.30695 167.9298,348.43975 164.75398,348.21786 C163.26374,348.11374 162.76978,348.70196 163.29011,349.96112 C163.72202,351.00634 163.14546,352.49299 162.00886,353.26477 C160.87226,354.03656 159.5837,357.1896 159.14541,360.27151 C158.63243,363.87855 158.73376,364.7616 159.42983,362.75 C160.02456,361.03125 161.15256,359.7464 161.93652,359.89476 C162.72046,360.04314 163.06837,359.12225 162.70963,357.84834 C161.87428,354.88191 164.51545,353.33275 167.0621,355.29544 C169.79968,357.40529 169.50602,360.36656 166.48648,361.09984 C164.76879,361.51696 164.16806,362.48736 164.62439,364.10781 C165.13378,365.91674 164.59189,366.5 162.40156,366.5 C159.92219,366.5 159.71255,366.86001 160.94586,369 C162.62026,371.90537 164.98405,372.31441 164.98405,369.69877 C164.98405,367.06132 167.49944,366.05767 169.75422,367.79544 C173.55991,370.72847 171.98571,372.54166 165.63365,372.54166 C160.29629,372.54166 159.30807,372.10196 157.55006,368.94495 L157.55002,368.94495 Z M177.38797,370.5625 C177.6557,369.35937 178.93212,368.4563 180.22445,368.55567 C181.95146,368.68848 182.35909,368.10715 181.76264,366.36202 C180.69457,363.23699 184.69102,361.76487 187.40381,364.28408 C189.19989,365.95199 189.05926,366.52539 186.13553,369.455 C182.31573,373.28249 176.62228,374.00331 177.38797,370.5625 L177.38797,370.5625 Z M189.58237,371.1875 C189.90882,370.32812 191.07071,369.68764 192.16431,369.7642 C193.55243,369.8613 193.9693,369.0123 193.5451,366.9517 C193.10917,364.834 193.5531,364 195.11349,364 C196.53722,364 197.28951,362.9196 197.28951,360.875 C197.28951,358.93055 198.05229,357.75 199.30861,357.75 C200.41911,357.75 201.3277,356.6582 201.3277,355.32377 C201.3277,352.13305 203.64486,350.9049 206.09788,352.79544 C209.0161,355.04451 208.57638,359 205.40813,359 C203.50215,359 202.99674,359.57711 203.60774,361.05576 C204.09857,362.24354 203.57864,363.70807 202.37649,364.52442 C201.23207,365.30152 200.03765,367.04831 199.72223,368.40616 C199.40681,369.76402 198.42754,370.73437 197.54609,370.5625 C196.66463,370.39062 195.94345,370.8125 195.94345,371.5 C195.94345,372.1875 194.37865,372.75 192.46613,372.75 C190.26507,372.75 189.20665,372.17653 189.58237,371.1875 L189.58237,371.1875 Z M202.0143,371.47961 C202.47932,370.7809 203.42366,370.53284 204.11285,370.92839 C205.97989,371.99993 205.63175,372.75 203.26736,372.75 C202.11316,372.75 201.5493,372.17833 202.0143,371.47961 L202.0143,371.47961 Z M205.65193,371.26562 C203.09681,368.89285 203.66241,365.25 206.58594,365.25 C208.51387,365.25 208.97179,364.60991 208.42725,362.67615 C207.89984,360.80328 208.45855,359.91865 210.4792,359.42797 C212.00644,359.0571 213.00139,358.10596 212.69024,357.31432 C211.77693,354.9908 214.33251,352.3201 216.67158,353.15363 C219.91425,354.30915 219.49991,360.25 216.17664,360.25 C214.27065,360.25 213.76524,360.82711 214.37624,362.30576 C214.86707,363.49354 214.34714,364.95807 213.14499,365.77442 C212.00057,366.55153 210.84212,368.2517 210.57067,369.55259 C209.95502,372.50289 207.79453,373.25533 205.65192,371.26562 L205.65193,371.26562 Z M214.78833,369.625 C214.78833,366.29594 217.23226,365.51952 219.90337,368 C222.57447,370.48047 221.73838,372.75 218.15348,372.75 C215.46136,372.75 214.78833,372.125 214.78833,369.625 L214.78833,369.625 Z M225.81308,370.5625 C226.06258,369.35937 227.46159,368.375 228.92198,368.375 C230.38238,368.375 231.78139,369.35937 232.03089,370.5625 C232.37067,372.20094 231.59033,372.75 228.92198,372.75 C226.25363,372.75 225.47329,372.20094 225.81308,370.5625 L225.81308,370.5625 Z M234.46016,370.95326 C234.83076,370.0564 234.19058,368.98643 233.03753,368.57554 C230.29293,367.5975 230.33422,362.88779 233.09613,361.90363 C235.66362,360.9887 237.93403,363.74339 237.142,366.8125 C236.83151,368.01562 237.1265,369 237.79753,369 C240.25727,369 238.93443,372.2238 236.40201,372.40095 C234.75684,372.51607 234.03644,371.97894 234.46028,370.95326 L234.46016,370.95326 Z M134.78414,368.63359 C135.28963,367.40081 136.04229,366.70706 136.45674,367.09192 C136.87117,367.47679 136.4576,368.48541 135.53767,369.33334 C134.20828,370.55866 134.05366,370.41509 134.78414,368.63359 L134.78414,368.63359 Z M242.19636,368.375 C241.23357,366.04507 242.5007,362.75 244.35946,362.75 C245.12303,362.75 245.74777,364.4375 245.74777,366.5 C245.74777,370.42521 243.52786,371.59723 242.19636,368.375 L242.19636,368.375 Z M170.6543,367.51562 C169.75663,366.68202 169.0222,364.94837 169.0222,363.66306 C169.0222,361.95455 169.83663,361.43354 172.05084,361.72556 C174.2375,362.01395 175.07948,362.9648 175.07948,365.14584 C175.07948,368.62095 173.02776,369.7197 170.6543,367.51562 L170.6543,367.51562 Z M219.7239,366.91666 C218.03572,365.34897 218.82415,361.42239 220.98145,360.65363 C223.34503,359.81136 225.50395,362.13814 225.53622,365.5625 C225.55632,367.71174 221.57816,368.63861 219.7239,366.91666 L219.7239,366.91666 Z M136.8381,360.1875 L136.95952,354.625 L138.27015,358.85766 C139.16238,361.73911 139.12362,363.51486 138.14874,364.42016 C137.13673,365.35995 136.7523,364.11846 136.8381,360.1875 L136.8381,360.1875 Z M187.4184,363.16666 C185.75547,361.62243 186.49071,356.5 188.3753,356.5 C191.03433,356.5 193.68913,359.88752 192.77113,362.10909 C191.96665,364.05594 189.00592,364.64091 187.4184,363.16666 L187.4184,363.16666 Z M175.30383,361.91666 C173.64091,360.37243 174.37615,355.25 176.26073,355.25 C178.91977,355.25 181.57457,358.63752 180.65656,360.85909 C179.85208,362.80594 176.89136,363.39091 175.30383,361.91666 L175.30383,361.91666 Z M237.21192,360.94109 C235.91888,357.81194 237.75288,355.08321 240.87136,355.49641 C242.91307,355.76694 243.72867,356.76701 243.72867,359 C243.72867,362.64211 238.552,364.18404 237.21192,360.94109 L237.21192,360.94109 Z M224.73572,359.71739 C223.51107,356.75378 225.24385,353.76071 227.90837,354.23724 C229.39849,354.50373 230.26805,355.7982 230.26805,357.75 C230.26805,361.31329 226.0195,362.82414 224.73572,359.71739 L224.73572,359.71739 Z M191.50312,356.95987 C190.98397,356.47777 190.5592,355.01296 190.5592,353.70472 C190.5592,351.95301 191.35741,351.4314 193.58784,351.72556 C195.56778,351.98669 196.61648,352.98473 196.61648,354.60788 C196.61648,357.08739 193.28872,358.61805 191.50312,356.95987 L191.50312,356.95987 Z M179.34202,355.66666 C178.84846,355.20834 178.44464,353.76296 178.44464,352.45472 C178.44464,350.70301 179.24284,350.1814 181.47328,350.47556 C185.42973,350.99736 186.64227,356.5 182.80079,356.5 C181.39202,356.5 179.83556,356.125 179.34202,355.66666 L179.34202,355.66666 Z M167.67614,352.125 C167.67614,350.18055 168.43891,349 169.69523,349 C170.95155,349 171.71433,347.81945 171.71433,345.875 C171.71433,343.58334 172.43222,342.75 174.40645,342.75 C176.40112,342.75 177.09858,341.91666 177.09858,339.53335 C177.09858,334.99429 181.65699,335.91697 182.23571,340.57319 C182.57271,343.28457 182.1073,344 180.00613,344 C177.98791,344 177.52457,344.61771 178.07541,346.57385 C178.60807,348.46539 178.03941,349.33245 175.9303,349.84464 C174.28267,350.24476 173.06039,351.54422 173.06039,352.89579 C173.06039,354.41666 172.10744,355.25 170.36826,355.25 C168.39403,355.25 167.67614,354.41666 167.67614,352.125 L167.67614,352.125 Z M231.46603,353.46739 C230.24138,350.50378 231.97417,347.51071 234.63868,347.98724 C236.1288,348.25373 236.99836,349.5482 236.99836,351.5 C236.99836,355.06329 232.74981,356.57414 231.46603,353.46739 L231.46603,353.46739 Z M218.33974,352.125 C217.18228,349.32399 218.86656,346.32472 221.3515,346.76182 C222.59668,346.98085 223.72107,348.62145 223.96365,350.57319 C224.29979,353.27759 223.83362,354 221.75206,354 C220.30142,354 218.76589,353.15625 218.33974,352.125 L218.33974,352.125 Z M206.95906,349.3125 C207.21262,347.26606 208.20205,345.875 209.40408,345.875 C210.6061,345.875 211.59553,347.26606 211.84909,349.3125 C212.19593,352.11166 211.74194,352.75 209.40408,352.75 C207.06626,352.75 206.61223,352.11166 206.95906,349.3125 L206.95906,349.3125 Z M183.814,348.97416 C182.04089,345.89751 183.10385,344 186.60045,344 C188.60607,344 189.21314,344.87134 189.21314,347.75 C189.21314,352.14745 186.05543,352.86341 183.814,348.97416 L183.814,348.97416 Z M195.94345,348.28335 C195.94345,344.18043 200.44651,344.54559 201.08481,348.70028 C201.41149,350.8267 200.845,351.5 198.7292,351.5 C196.63394,351.5 195.94345,350.7027 195.94345,348.28335 L195.94345,348.28335 Z M239.50423,347.125 C238.30209,344.21584 239.99636,341.5 243.0134,341.5 C245.15421,341.5 245.74777,342.31403 245.74777,345.25 C245.74777,348.18597 245.15421,349 243.0134,349 C241.50949,349 239.93036,348.15625 239.50423,347.125 L239.50423,347.125 Z M224.69754,345.875 C223.51624,343.01626 225.17114,340.25 228.0627,340.25 C230.95424,340.25 232.60916,343.01626 231.42786,345.875 C231.0017,346.90625 229.48738,347.75 228.0627,347.75 C226.638,347.75 225.12368,346.90625 224.69754,345.875 L224.69754,345.875 Z M212.0962,343.50874 C212.0962,339.83699 215.64334,338.27989 217.27803,341.23405 C218.90926,344.18194 217.7639,346.5 214.67616,346.5 C212.85233,346.5 212.0962,345.62331 212.0962,343.50874 L212.0962,343.50874 Z M190.11052,344.41666 C189.61696,343.95834 189.21314,342.27084 189.21314,340.66666 C189.21314,338.95351 188.40861,337.75 187.26339,337.75 C186.19104,337.75 183.6167,336.28369 181.54263,334.49154 C177.86622,331.31483 177.76082,331.29914 177.34147,333.86654 C177.08054,335.46406 175.92041,336.5 174.39228,336.5 C171.35498,336.5 170.08534,334.88912 171.13004,332.36097 C172.35072,329.40697 176.51306,329.09234 180.6735,331.63956 C182.77913,332.92875 185.56195,333.98724 186.85753,333.99176 C188.15311,333.99676 189.21314,334.49426 189.21314,335.09835 C189.21314,336.30177 195.04849,338.68364 199.30861,339.21909 C200.78928,339.40519 204.72651,338.36267 208.05802,336.9024 C220.36349,331.50859 224.05026,330.05066 226.08634,329.77316 C227.23291,329.61689 228.59238,329.09775 229.10736,328.61951 C230.71883,327.12305 234.97927,327.67121 234.97927,329.375 C234.97927,332.8672 227.90865,335.88489 226.67854,332.91769 C226.43177,332.32243 225.0184,332.28289 223.53773,332.82979 C221.13065,333.71896 221.10493,333.83354 223.29484,333.91209 C227.14362,334.05016 225.70056,339.51771 221.67585,340.04622 C218.88422,340.41281 218.5531,340.05322 219.12445,337.27807 L219.78099,334.08866 L215.62116,336.83932 C213.33326,338.35219 210.39272,339.42188 209.08664,339.21641 C207.33083,338.94019 206.71195,339.67773 206.71195,342.0464 C206.71195,344.41664 206.01167,345.24998 204.01983,345.24998 C202.27786,345.24998 201.3277,344.41664 201.3277,342.88887 C201.3277,339.89433 196.99103,340.02694 195.6503,343.06248 C194.67934,345.26084 191.78219,345.96903 190.11052,344.41664 L190.11052,344.41666 Z M167.25549,341.94271 C166.74651,341.47005 166.33008,339.72959 166.33008,338.07501 C166.33008,335.88279 166.9691,335.18098 168.68569,335.48796 C170.14974,335.74979 171.0413,337.04609 171.0413,338.91295 C171.0413,341.92021 168.99487,343.55795 167.25549,341.94271 L167.25549,341.94271 Z M232.81015,339.71268 C231.46991,336.46934 233.3484,333.78869 236.65582,334.22482 C238.8805,334.51819 239.69048,335.45909 239.69048,337.75 C239.69048,340.04091 238.8805,340.98181 236.65582,341.27517 C234.83557,341.5152 233.29661,340.88992 232.81015,339.71267 L232.81015,339.71268 Z M242.60696,334.41666 C241.10298,333.02001 241.60571,329.25029 243.39216,328.52878 C244.31757,328.15501 243.40896,328.16911 241.37306,328.56018 C237.25331,329.35138 236.5117,327.69996 239.83614,325.13781 C241.6754,323.72029 242.28258,323.82718 243.87433,325.84867 C247.08063,329.92061 245.95559,337.52639 242.60696,334.41673 L242.60696,334.41666 Z M118.0088,330.57068 C117.9334,329.02829 119.53195,320.30954 121.56099,311.19568 C125.11716,295.22231 125.25061,293.22821 125.26267,255.875 C125.27477,218.18574 125.36117,216.92709 128.41759,209.89514 C130.86665,204.26054 133.33346,201.29473 139.59748,196.45379 C149.38508,188.88976 154.16375,186.5 159.5015,186.5 C162.94544,186.5 163.9909,187.29915 166.26495,191.67001 C167.74437,194.51351 168.64521,197.30519 168.26683,197.87372 C167.34422,199.25998 158.4084,201.5059 154.21551,201.40538 C151.88372,201.34948 153.0363,200.63315 157.96883,199.07271 C165.02512,196.84042 168.09779,195.25 165.35428,195.25 C164.57082,195.25 163.54321,193.81966 163.07073,192.07148 C162.59824,190.32329 161.3327,188.57973 160.25839,188.1969 C159.17171,187.80966 153.53938,190.46561 147.56322,194.1834 C129.12605,205.65319 127.31382,211.65099 127.30206,261.2402 C127.29606,286.95788 126.81336,296.20078 125.08303,303.7402 C119.58931,327.67746 118.13659,333.18722 118.0088,330.57068 L118.0088,330.57068 Z M216.08355,313.31811 C215.13395,312.25558 213.61745,311.64978 212.71354,311.97189 C210.39969,312.79642 201.29148,309.70953 199.86483,307.61728 C199.21141,306.65903 198.66752,304.63914 198.65619,303.12864 C198.64539,301.61815 197.12126,297.73749 195.27042,294.50497 C193.41959,291.27245 191.90526,287.19479 191.90526,285.44351 C191.90526,283.69224 190.27694,280.07738 188.28676,277.41049 C186.08851,274.46481 184.56767,270.63623 184.41206,267.65622 C184.05509,260.82121 181.25381,254.94082 178.77543,255.824 C177.31611,256.34401 177.05239,255.95216 177.76772,254.32668 C180.60359,247.8825 181.24955,243.5989 179.91967,240.05626 C178.95951,237.4985 178.94589,234.45263 179.87657,230.42265 C180.9646,225.71144 180.80667,223.57168 179.08922,219.75459 C176.22756,213.39445 177.37368,212.73295 181.09823,218.59508 C183.15813,221.83719 183.87151,224.52174 183.39612,227.24224 C182.84706,230.38419 183.16355,231.15575 184.95035,231.03129 C186.71231,230.90854 187.20426,232.01563 187.24163,236.1875 C187.27053,239.40334 186.67429,241.5 185.7311,241.5 C184.87412,241.5 183.76321,243.87955 183.2624,246.78789 C182.54543,250.95164 183.00963,253.33291 185.44598,257.98933 C187.14775,261.24178 189.31225,263.92473 190.25599,263.95144 C192.36375,264.01104 194.98122,270.01814 193.96794,272.47025 C193.53119,273.52716 192.32903,273.93881 191.0305,273.47608 C189.22904,272.83413 189.12739,273.0229 190.46722,274.52209 C191.3664,275.52821 192.90513,276.06524 193.88661,275.71549 C196.35154,274.83711 198.05707,277.78693 195.82499,279.06799 C194.47725,279.8415 194.9166,280.42459 197.54696,281.35328 C202.71983,283.17964 204.64271,293.39916 199.60201,292.27528 C198.70031,292.07423 198.41684,292.14568 198.97208,292.43404 C199.52734,292.7224 199.98163,293.7884 199.98163,294.80294 C199.98163,295.81748 200.58736,296.2999 201.32769,295.875 C202.06803,295.4501 202.67376,296.04039 202.67376,297.18674 C202.67376,298.79064 203.45618,299.08866 206.06847,298.4798 C208.5109,297.91055 209.69873,298.25858 210.30281,299.72045 C211.32135,302.1853 208.69218,303.91995 205.21688,303.076 C203.55357,302.67208 202.67376,303.1106 202.67376,304.3437 C202.67376,306.5621 205.93227,307.4509 217.81241,308.47298 C226.40203,309.21196 226.59639,309.16064 229.48781,305.38981 C231.10501,303.28075 234.46166,300.65906 236.94702,299.56384 C239.43239,298.46863 242.4155,295.78434 243.57617,293.59878 L245.68646,289.625 L245.71716,293.74719 C245.73856,296.62315 244.67102,298.79609 242.18611,300.93469 C240.22716,302.62061 238.09691,304 237.45223,304 C236.80754,304 233.45711,306.67188 230.0068,309.9375 C224.9994,314.67689 223.62597,315.43359 223.20044,313.6875 C222.88236,312.38233 221.48557,311.5398 219.73741,311.59869 C218.12594,311.65299 217.56463,311.98109 218.49004,312.32785 C220.40383,313.04498 220.78215,315.25 218.99137,315.25 C218.3417,315.25 217.03318,314.38065 216.0836,313.31811 L216.08355,313.31811 Z M185.17495,239 C185.17495,238.3125 184.53347,237.75 183.74944,237.75 C182.96542,237.75 182.6983,238.3125 183.15586,239 C183.61341,239.6875 184.25489,240.25 184.58136,240.25 C184.90784,240.25 185.17495,239.6875 185.17495,239 L185.17495,239 Z M221.51864,302.75 C221.51864,301.10867 220.62126,300.25 218.90595,300.25 C217.46898,300.25 215.96726,299.76015 215.56882,299.16145 C215.17035,298.56275 213.01455,297.73306 210.77815,297.3177 C207.3854,296.68758 206.71195,295.9673 206.71195,292.9688 C206.71195,290.95951 204.93156,287.09275 202.67376,284.19837 C200.45276,281.35117 198.63558,277.68137 198.63558,276.04326 C198.63558,274.40515 197.10942,270.52916 195.24411,267.42994 C192.50637,262.88117 191.92259,260.38114 192.21547,254.46 C192.41503,250.42575 193.24321,246.5625 194.05588,245.875 C194.86855,245.1875 196.61114,240.79533 197.92829,236.1146 C199.65717,229.97065 200.83706,227.78736 202.17146,228.26287 C204.72797,229.17389 204.49027,227.72005 201.78203,225.88106 C200.39743,224.94089 199.8845,223.53807 200.43667,222.20181 C201.75991,218.9996 204.62654,220.53326 205.14616,224.7214 C205.39547,226.73088 206.4555,228.82482 207.50177,229.37461 C208.54804,229.9244 209.40408,231.17024 209.40408,232.14314 C209.40408,234.50219 214.4091,236.88367 217.69164,236.08652 C220.34934,235.44112 231.63872,238.39552 234.52954,240.49296 C235.59609,241.26679 236.40185,240.7094 237.04436,238.75331 C239.17264,232.274 245.76682,228.90141 245.72716,234.3125 C245.70256,237.65059 244.66227,239.13947 241.03655,241.02504 C239.44809,241.85112 238.50527,243.45197 238.73679,244.92992 C239.11319,247.33274 238.83909,247.30554 232.00648,244.26192 C228.089,242.51687 223.06661,241.00466 220.84561,240.90145 C215.5229,240.65412 210.67192,238.6501 207.51287,235.39345 C204.21193,231.99052 202.6812,232.04367 202.64421,235.5625 C202.62791,237.10937 201.48405,240.68691 200.10221,243.5126 C195.57021,252.77999 195.36009,257.84886 199.22795,264.60416 C201.12315,267.91416 202.67376,271.86748 202.67376,273.38929 C202.67376,274.91111 204.49095,278.27967 206.71195,280.875 C208.93296,283.47032 210.82585,286.64141 210.9184,287.92187 C211.0109,289.20235 211.16237,290.85808 211.25491,291.60128 C211.50087,293.57651 217.59647,296.40449 221.71847,296.4557 C224.46118,296.4898 226.01357,295.36255 228.44878,291.56871 C230.18972,288.8565 233.67974,285.34088 236.20441,283.75621 C238.72907,282.17154 241.00375,279.56688 241.25923,277.96804 C241.76416,274.80804 244.33414,269.77059 245.08541,270.46825 C245.34148,270.70605 245.20831,274.41048 244.78939,278.70031 C244.28407,283.87553 243.44281,286.5 242.28927,286.5 C241.33308,286.5 240.35718,287.76562 240.12062,289.3125 C239.83533,291.17786 238.60674,292.26727 236.47237,292.5475 C233.84966,292.89182 233.41445,292.5455 234.12008,290.6725 C234.90732,288.58345 234.80238,288.59515 232.96347,290.80141 C231.85116,292.13594 230.94108,293.89519 230.94108,294.71085 C230.94108,295.52652 230.03915,296.889 228.9368,297.73857 C227.83446,298.58816 227.28088,299.80667 227.70662,300.44639 C228.71686,301.96434 225.75261,305.25 223.37292,305.25 C222.35306,305.25 221.51864,304.125 221.51864,302.75 L221.51864,302.75 Z M51.241729,272.75 C51.699282,272.0625 52.340757,271.5 52.667232,271.5 C52.993707,271.5 53.260823,272.0625 53.260823,272.75 C53.260823,273.4375 52.619346,274 51.83532,274 C51.051294,274 50.784177,273.4375 51.241729,272.75 L51.241729,272.75 Z M151.62966,268.16474 C151.57126,267.36159 151.17479,265.67409 150.74871,264.41474 C150.01235,262.23821 150.05034,262.23549 151.51702,264.35964 C152.36565,265.58867 152.76208,267.27617 152.39795,268.10964 C151.92013,269.20338 151.70636,269.21873 151.62966,268.16474 L151.62966,268.16474 Z M82.915423,249.625 C82.915423,248.9375 83.5026,247.53125 84.220262,246.5 C84.937923,245.46875 85.5251,245.1875 85.5251,245.875 C85.5251,246.5625 84.937923,247.96875 84.220262,249 C83.5026,250.03125 82.915423,250.3125 82.915423,249.625 L82.915423,249.625 Z M76.382014,241.38959 C74.207542,238.15619 75.977265,235.84345 81.396076,234.83702 C83.511239,234.44419 86.223429,233.21121 87.423169,232.0971 C88.622909,230.98297 89.604512,230.46174 89.604512,230.93877 C89.604512,231.41581 90.513104,231.10586 91.623605,230.25 C92.734107,229.39414 93.642699,227.65755 93.642699,226.39092 C93.642699,225.12429 94.854156,223.48588 96.334824,222.75 C98.78161,221.53397 99.02695,221.79939 99.02695,225.66245 C99.02695,231.27732 94.774415,236.08477 88.186236,237.91777 C85.264614,238.73065 82.874199,239.92936 82.874199,240.5816 C82.874199,241.23382 81.965607,241.4437 80.855105,241.04796 C79.744604,240.65224 78.836011,240.87331 78.836011,241.53922 C78.836011,243.51885 81.749401,242.89875 89.983348,239.16659 C97.93509,235.56234 99.6116,236.29995 93.34424,240.64527 C91.422611,241.97759 87.211212,243.27184 83.985567,243.52136 C79.198668,243.89167 77.801195,243.49986 76.382014,241.38959 L76.382014,241.38959 Z M212.91325,233.27276 C211.62275,230.1498 211.92833,229.22405 214.45181,228.61166 C216.38342,228.1429 216.30894,228.0139 214.03789,227.895 C212.40414,227.8095 209.57141,225.51431 207.13037,222.29834 C203.31653,217.27372 202.91444,215.73859 201.99724,202.70046 C201.44992,194.92004 200.48,186.86366 199.84186,184.79741 C198.4382,180.25241 199.20546,179.06756 201.25236,182.61925 C202.62429,184.99981 204.63837,195.4127 206.32299,208.83471 C207.11357,215.13362 211.8405,222.24766 217.27417,225.31624 L221.03966,227.44276 L220.43356,220.65571 C220.00889,215.90006 220.52346,212.43542 222.1528,209.08005 C223.91334,205.45449 224.27598,202.51033 223.64586,196.95821 C222.19586,184.18189 222.50261,181.39405 225.70692,178.22665 C229.44237,174.5342 231.63133,174.33694 229.30586,177.90232 C224.64345,185.0507 224.36291,185.78909 225.72874,187.31735 C227.17285,188.93321 226.6006,206.39856 224.8631,213.73722 C224.13956,216.79327 224.33465,217.75641 225.62267,217.48722 C227.71009,217.05096 230.89365,222.27841 230.92124,226.1875 C230.94544,229.62031 226.05013,230.15162 225.1627,226.8125 C224.84294,225.60937 224.71958,225.90405 224.88857,227.46734 C225.28212,231.10836 223.70568,231.9732 219.86389,230.22391 C216.87525,228.8631 216.87844,228.8854 220.0071,231.22879 L223.20676,233.62535 L220.0071,234.42061 C215.11545,235.63639 213.80215,235.42389 212.91325,233.27276 L212.91325,233.27276 Z M233.68055,230.33217 C231.91078,227.2613 231.88692,223.12724 233.63315,222.125 C234.37349,221.7001 234.97921,222.5507 234.97921,224.01524 C234.97921,226.35399 235.55462,226.11144 239.70793,222.02192 C245.66223,216.15907 247.584,217.3528 241.88866,223.37651 C239.56914,225.82978 237.67134,228.94241 237.67134,230.2935 C237.67134,233.43741 235.48233,233.45863 233.6805,230.3321 L233.68055,230.33217 Z M243.05564,224.69877 C243.05564,223.7081 243.66137,222.5499 244.4017,222.125 C245.14204,221.7001 245.74777,222.51065 245.74777,223.92622 C245.74777,225.3418 245.14204,226.5 244.4017,226.5 C243.66137,226.5 243.05564,225.68945 243.05564,224.69877 L243.05564,224.69877 Z M231.54149,217.96247 C232.01183,216.58634 231.76628,215.09861 230.99584,214.65643 C228.66936,213.32119 229.41788,208.21331 232.39981,205.07598 C234.83026,202.51885 235.07434,202.45866 234.22853,204.625 C233.69169,206 233.00931,208.8125 232.71212,210.875 L232.17177,214.625 L234.3539,211.07699 C237.01069,206.75718 238.27035,207.37429 236.35335,212.05654 C235.58701,213.92833 235.28417,215.94686 235.68036,216.54218 C236.07657,217.13749 235.11499,218.26356 233.54352,219.04456 C231.00466,220.30636 230.7816,220.1858 231.54149,217.96248 L231.54149,217.96247 Z M88.93148,214 C87.947509,212.52152 89.264658,212.52152 92.969668,214 C95.565189,215.03574 95.555971,215.07744 92.712592,215.16214 C91.090532,215.21044 89.389034,214.6875 88.93148,214 L88.93148,214 Z M170.29059,213.2881 C169.2695,212.14555 167.37364,211.59755 165.75108,211.97593 C163.29351,212.54903 163.22421,212.44504 165.16348,211.09416 C166.37269,210.25184 167.64025,208.45169 167.98026,207.09384 C168.5325,204.8885 168.75591,204.97894 170.07338,207.94107 C170.88457,209.76491 172.19136,211.62624 172.97736,212.07735 C174.70347,213.06801 174.87393,215.25 173.2252,215.25 C172.57553,215.25 171.25494,214.36714 170.29059,213.2881 L170.29059,213.2881 Z M89.35212,210.64611 C90.323815,210.28502 91.484789,210.32942 91.93208,210.74471 C92.37936,211.16007 91.584344,211.45551 90.165367,211.40123 C88.59728,211.34123 88.278328,211.04506 89.35212,210.64603 L89.35212,210.64611 Z M194.06838,209.52276 C192.92263,206.75011 193.01018,206.5 195.1264,206.5 C197.15685,206.5 198.95537,209.53636 197.64546,210.75279 C196.26114,212.03831 194.91685,211.57606 194.06838,209.52276 L194.06838,209.52276 Z M88.258449,207.75 C86.578875,206.74204 86.692052,206.52029 88.93148,206.43129 C91.623605,206.32429 91.623605,206.32429 88.93148,205.17275 C86.433996,204.10447 86.4248,204.04305 88.804304,204.32311 C90.215032,204.48915 91.52432,205.60937 91.713846,206.8125 C92.101856,209.27571 91.205831,209.51881 88.258449,207.75 L88.258449,207.75 Z M140.75489,204.95398 L137.38973,203.56641 L140.63659,203.04471 C143.14352,202.6419 143.45027,202.26839 141.98265,201.40565 C140.57203,200.57643 140.94964,200.28829 143.44701,200.28829 C145.29785,200.28829 147.72076,200.83355 148.83126,201.5 C150.51502,202.51046 150.40322,202.74024 148.15823,202.88346 C146.67756,202.97796 149.40334,203.76161 154.21551,204.625 L162.96492,206.19479 L153.54248,206.26819 C148.36014,206.30859 142.60572,205.71715 140.75489,204.954 L140.75489,204.95398 Z M188.63853,204.41244 C188.16298,203.26162 188.55143,201.86794 189.50406,201.30657 C190.70824,200.59704 190.3639,200.28247 188.3684,200.26914 C186.79331,200.25914 184.75052,199.40625 183.82889,198.375 C182.7722,197.19264 182.68198,196.5 183.58463,196.5 C184.37191,196.5 185.39043,197.0625 185.84798,197.75 C186.30554,198.4375 187.83122,199 189.23839,199 C191.24619,199 191.73611,199.80662 191.51455,202.74751 C191.20191,206.89751 189.96202,207.61527 188.63853,204.41244 L188.63853,204.41244 Z M86.912387,200.54901 C90.075418,199.97516 90.115843,199.8734 87.585418,198.85485 C85.074123,197.84401 85.066629,197.7915 87.473867,198.07311 C91.783389,198.57726 91.681368,201.5226 87.361067,201.32977 C83.688458,201.16585 83.671843,201.13694 86.912387,200.54901 L86.912387,200.54901 Z M228.26956,196.8125 C228.30726,195.10166 230.78173,192.18535 231.57261,192.91979 C232.63297,193.90447 230.94388,197.75 229.451,197.75 C228.78988,197.75 228.25822,197.32812 228.26956,196.8125 L228.26956,196.8125 Z M85.566324,194.13026 C88.636488,193.21919 88.695489,193.07676 86.239355,192.50547 C83.54723,191.87929 83.54723,191.87929 86.239355,192.00215 C90.12099,192.17929 89.559413,194.57799 85.566324,194.87695 L82.201168,195.12889 L85.566324,194.13026 L85.566324,194.13026 Z M186.98551,190.82109 C185.94605,188.30564 186.31315,188.06181 191.90526,187.55336 C195.93415,187.18704 196.67878,187.53236 197.04662,189.9375 C197.42436,192.40742 196.88634,192.75 192.62967,192.75 C189.50267,192.75 187.49972,192.06549 186.98551,190.82109 L186.98551,190.82109 Z M82.537683,188.17215 C83.463101,187.82539 84.977422,187.82539 85.90284,188.17215 C86.828263,188.51891 86.071098,188.80264 84.220262,188.80264 C82.369426,188.80264 81.612265,188.51891 82.537683,188.17215 L82.537683,188.17215 Z M88.364713,185.77084 C88.429323,184.31465 88.748265,184.01846 89.177961,185.01562 C89.5668,185.91796 89.518977,186.99609 89.071676,187.41146 C88.624395,187.82682 88.306251,187.08854 88.364702,185.77084 L88.364713,185.77084 Z M82.874199,186.00874 C82.874199,185.73854 83.782791,185.1937 84.893293,184.79796 C86.003794,184.40224 86.912387,184.62331 86.912387,185.28923 C86.912387,185.95515 86.003794,186.5 84.893293,186.5 C83.782791,186.5 82.874199,186.27892 82.874199,186.00874 L82.874199,186.00874 Z M175.7532,182.59569 C170.98405,180.82967 166.49193,176.6426 163.44358,171.12194 C161.4696,167.54697 160.21402,166.54722 158.37795,167.08839 C153.89869,168.40859 149.88645,163.84301 148.76166,156.14594 C147.5786,148.05006 140.81237,139.0614 135.87197,139.02254 C132.26643,138.99414 129.89383,136.37972 128.75473,131.1798 C127.91235,127.33447 127.49644,127.09026 120.70417,126.45252 C109.61398,125.41126 108.00123,121.89423 111.84146,107.125 C112.91404,103 113.80105,97.273497 113.81262,94.399439 C113.83052,89.936068 113.39483,89.115616 110.82522,88.774439 C108.90982,88.520122 106.67247,86.444879 104.66709,83.0625 C101.75572,78.152022 101.70326,77.748551 103.97383,77.730859 C105.98947,77.715149 106.07949,77.505636 104.47547,76.563338 C103.40032,75.931729 102.03742,75.692289 101.44683,76.03125 C100.42776,76.616124 100.22987,75.149293 99.73936,63.375 C99.6248,60.625 98.81191,57.146355 97.93295,55.644676 C97.05398,54.142999 96.36867,51.611749 96.410032,50.019676 C96.465272,47.8948 97.15182,48.620891 98.99177,52.75 C100.37035,55.84375 102.16927,58.229553 102.98936,58.051785 C103.96141,57.841075 104.39724,60.092776 104.24142,64.520638 C104.03105,70.499235 104.47024,71.748309 107.90849,74.949786 C113.13931,79.820413 117.87039,88.925685 117.87807,94.136914 C117.88207,96.467861 116.84914,103.01319 115.58394,108.68209 C113.80431,116.65585 113.64652,119.32623 114.88684,120.47804 C116.12716,121.62984 117.25475,121.29981 119.86778,119.02018 C121.72551,117.39949 123.62571,116.42659 124.09047,116.85818 C125.49704,118.16437 135.37064,112.84044 135.37064,110.77582 C135.37064,109.71797 135.97637,109.2001 136.7167,109.625 C138.43979,110.61394 138.4286,109.47043 136.6856,106.44596 C135.60881,104.57752 135.71585,104.20146 137.17631,104.7219 C139.49013,105.54643 142.101,110.68039 142.101,114.40568 C142.101,117.92178 138.05266,123.50729 136.83275,121.67431 C136.3458,120.94264 134.51674,120.69142 132.76816,121.11606 C129.61094,121.88276 129.6206,121.91266 134.16238,125.43054 C138.60866,128.87445 138.6516,128.99477 135.70721,129.75727 C134.04145,130.18864 132.67857,131.03847 132.67857,131.64579 C132.67857,133.1219 133.56514,133.03766 136.60914,131.27231 C142.20176,128.02892 164.98407,136.74886 164.98407,142.13284 C164.98407,143.15977 164.3668,144 163.61236,144 C162.81755,144 162.58028,145.44572 163.0482,147.4375 C163.64988,149.99866 163.50454,150.40779 162.47811,149.04235 C161.35061,147.5425 160.84199,147.841 159.67711,150.68622 C157.79006,155.29532 157.87858,155.84526 160.21739,154.04274 C161.83481,152.7962 162.33414,153.09591 163.04948,155.74262 C163.52713,157.50991 163.28072,160.6533 162.50193,162.72794 C161.37215,165.73751 161.46157,166.5 162.94429,166.5 C163.96639,166.5 165.18858,167.62919 165.66028,169.00931 C166.47874,171.40405 177.67551,180.25 179.88817,180.25 C180.46917,180.25 181.76129,179.54687 182.75958,178.6875 C185.36052,176.44846 193.00978,171.5 193.86991,171.5 C194.27006,171.5 194.59744,173.13732 194.59744,175.13849 C194.59744,178.19102 193.66189,179.19756 188.78821,181.38849 C182.37233,184.27271 180.70032,184.42756 175.75326,182.59569 L175.7532,182.59569 Z M160.27279,164 C160.73035,163.3125 159.82176,162.75 158.2537,162.75 C156.68565,162.75 155.77705,163.3125 156.23461,164 C156.69216,164.6875 157.60075,165.25 158.2537,165.25 C158.90665,165.25 159.81524,164.6875 160.27279,164 L160.27279,164 Z M160.67661,160 C163.05796,157.7886 162.70871,154.834 160.17278,155.73768 C157.67241,156.62869 153.08082,152.94703 155.13602,151.69906 C155.88242,151.24583 156.93727,149.19314 157.48014,147.13752 C158.02299,145.08191 159.17628,142.98115 160.043,142.46916 C161.13209,141.82582 160.99519,141.54465 159.59976,141.5589 C156.57478,141.5898 151.79997,145.39886 153.879,146.12261 C154.80441,146.44476 155.56158,147.60326 155.56158,148.69706 C155.56158,150.2553 154.8227,150.04117 152.14809,147.70785 L148.73463,144.72991 L150.87244,149.4813 C152.04825,152.09456 152.75758,154.88345 152.44873,155.67884 C150.78986,159.95086 157.13888,163.28526 160.67661,160 L160.67661,160 Z M150.94338,141.36025 C151.45208,140.59587 151.04955,139.50058 150.04879,138.92623 C148.34082,137.94599 146.21,139.5274 146.15975,141.8125 C146.12765,143.2719 149.90903,142.9144 150.94338,141.36025 L150.94338,141.36025 Z M143.15398,135.44312 C143.53973,134.36734 142.8925,133.91687 141.35797,134.19312 C140.03847,134.43065 138.6875,135.38185 138.35581,136.30688 C137.97005,137.38266 138.61728,137.83313 140.15181,137.55688 C141.47131,137.31935 142.82228,136.36815 143.15398,135.44312 L143.15398,135.44312 Z M149.81277,134.49479 C149.36549,134.07943 148.20449,134.03503 147.23282,134.39619 C146.15902,134.79522 146.47797,135.09142 148.04607,135.15139 C149.46503,135.20559 150.26006,134.91024 149.81277,134.49487 L149.81277,134.49479 Z M125.11574,123.31008 C125.57541,122.19767 125.34975,121.69593 124.58673,122.13385 C123.85487,122.55388 123.25608,123.42685 123.25608,124.07378 C123.25608,125.87181 124.22089,125.4756 125.11574,123.31008 L125.11574,123.31008 Z M138.79114,116.41684 C140.17229,114.34158 138.93263,114.05381 137.00014,116.00107 C136.04554,116.96298 135.85835,117.75 136.58419,117.75 C137.31001,117.75 138.30314,117.15008 138.79114,116.41684 L138.79114,116.41684 Z M109.79545,81.5 C109.00302,80.125 107.74894,79 107.0086,79 C106.14281,79 106.1766,79.891972 107.1034,81.5 C107.89583,82.875 109.14991,84 109.89024,84 C110.75604,84 110.72225,83.108028 109.79544,81.5 L109.79545,81.5 Z M81.191621,181.92215 C82.117039,181.57539 83.631359,181.57539 84.556777,181.92215 C85.482195,182.26891 84.725035,182.55264 82.874199,182.55264 C81.023363,182.55264 80.266203,182.26891 81.191621,181.92215 L81.191621,181.92215 Z M87.124924,179 C87.124924,177.28125 87.430438,176.57812 87.803857,177.4375 C88.177276,178.29687 88.177276,179.70312 87.803857,180.5625 C87.430438,181.42187 87.124924,180.71875 87.124924,179 L87.124924,179 Z M80.182074,179.77079 C80.182074,179.50722 81.39353,178.99739 82.874199,178.63781 C84.354868,178.27824 85.566324,178.49389 85.566324,179.11702 C85.566324,179.74016 84.354868,180.25 82.874199,180.25 C81.39353,180.25 80.182074,180.03435 80.182074,179.77079 L80.182074,179.77079 Z M222.87732,176.14735 C222.84272,170.04026 230.42214,160.41656 240.07406,154.3125 C245.30298,151.00562 245.74777,150.92545 245.74777,153.28989 C245.74777,154.27431 243.77914,156.37576 241.37306,157.95975 C233.34542,163.24456 230.68107,165.82925 226.77131,172.125 C224.63657,175.5625 222.88429,177.37256 222.87732,176.14735 L222.87732,176.14735 Z M79.929687,175.64611 C80.901376,175.28502 82.062355,175.32942 82.509641,175.74471 C82.956926,176.16007 82.161907,176.45551 80.742934,176.40123 C79.174848,176.34123 78.855889,176.04506 79.929687,175.64603 L79.929687,175.64611 Z M202.98615,172.75 C203.91084,171.375 205.22131,170.25 205.8983,170.25 C206.5753,170.25 206.0329,171.375 204.69286,172.75 C203.35287,174.125 202.04241,175.25 201.7807,175.25 C201.519,175.25 202.06146,174.125 202.98615,172.75 L202.98615,172.75 Z M79.929687,173.14611 C80.901376,172.78502 82.062355,172.82942 82.509641,173.24471 C82.956926,173.66007 82.161907,173.95551 80.742934,173.90123 C79.174848,173.84123 78.855889,173.54506 79.929687,173.14603 L79.929687,173.14611 Z M60.608818,165.16684 C60.120826,164.4336 60.044778,163.53352 60.439823,163.16666 C61.404026,162.27127 64.029323,163.84895 64.029323,165.32377 C64.029323,166.92124 61.705466,166.81461 60.608818,165.16684 L60.608818,165.16684 Z M164.66538,162.07244 C165.38343,158.58426 166.6195,158.92323 167.25369,162.78221 C167.4884,164.21044 166.89089,165.25 165.83526,165.25 C164.60745,165.25 164.22507,164.21139 164.66538,162.07244 L164.66538,162.07244 Z M241.70958,161.02805 C241.70958,160.76849 242.7696,159.78411 244.06519,158.84055 C246.20012,157.28571 246.24774,157.32992 244.57341,159.3125 C242.81495,161.39469 241.70958,162.05685 241.70958,161.02805 L241.70958,161.02805 Z M228.92198,96.5 C228.46443,95.8125 229.07016,95.25 230.26805,95.25 C231.46593,95.25 232.07166,95.8125 231.61411,96.5 C231.15656,97.1875 230.55083,97.75 230.26805,97.75 C229.98527,97.75 229.37954,97.1875 228.92198,96.5 L228.92198,96.5 Z M132.50807,91.8125 C130.73398,90.609375 128.114,89.022314 126.6859,88.285696 C122.66566,86.212059 122.57439,84 126.50907,84 C128.44727,84 129.98639,83.287783 129.98639,82.390885 C129.98639,81.471485 131.86152,80.650796 134.36109,80.476208 C136.76717,80.308149 138.9377,79.626001 139.18447,78.960324 C139.76615,77.391284 153.809,77.377915 154.85221,78.945414 C155.28978,79.602888 156.53699,79.823957 157.62379,79.436678 C160.46817,78.423079 160.0691,81.403871 157.21663,82.477787 C155.9059,82.971258 154.84588,84.433237 154.86102,85.726628 C154.90142,89.178023 146.79678,92.920321 142.53808,91.416717 C139.15534,90.222379 133.22648,89.896124 136.38018,91.077854 C138.28455,91.79144 138.67608,94 136.89823,94 C136.25774,94 134.28216,93.015625 132.50807,91.8125 L132.50807,91.8125 Z M145.93827,85.127719 C150.7368,83.574322 151.50656,82.035714 147.4852,82.035714 C146.00453,82.035714 144.79308,82.54028 144.79308,83.156971 C144.79308,83.773661 142.6597,83.906568 140.05225,83.452315 C136.63777,82.857468 134.72794,83.168258 133.22579,84.563203 C131.34231,86.312266 131.6519,86.5 136.41969,86.5 C139.32343,86.5 143.60679,85.882474 145.93827,85.127719 L145.93827,85.127719 Z M223.76209,93.166666 C222.28821,91.79798 222.82439,87.27906 224.73849,84.9375 C227.18811,81.940811 228.67513,82.174868 226.888,85.275834 C225.04798,88.468573 226.20293,90.25 230.11285,90.25 C233.9189,90.25 237.79761,86.452119 242.24058,78.375 L245.67851,72.125 L245.71311,78.209559 C245.74391,83.63056 245.17783,84.82336 240.52185,89.147059 C236.21498,93.146596 234.36076,94 229.97772,94 C227.05267,94 224.25563,93.625 223.76209,93.166666 L223.76209,93.166666 Z M212.76176,82.742336 C211.41767,81.363121 210.64295,79.932866 211.04018,79.563991 C211.9461,78.722719 221.44053,83.038936 221.48553,84.3125 C221.55553,86.293436 215.08802,85.129372 212.76176,82.742336 L212.76176,82.742336 Z M118.88137,80.149876 C115.39152,78.262282 115.99995,75.487696 120.90047,70.94242 C126.4397,65.804719 141.9845,62.161111 151.52339,63.764587 L157.58067,64.78281 L148.05291,65.459144 C142.81264,65.831127 137.36109,66.74319 135.93834,67.48595 C133.80856,68.597832 134.30279,68.767204 138.73579,68.444626 C141.69713,68.229137 142.90859,68.317229 141.42792,68.640384 C139.94725,68.963539 137.8272,69.934902 136.7167,70.79897 C135.6062,71.663036 133.63758,72.719097 132.342,73.14577 C131.04641,73.572442 129.98639,74.782943 129.98639,75.835769 C129.98639,76.888596 129.0778,77.75 127.96729,77.75 C126.85679,77.75 125.9482,78.59375 125.9482,79.625 C125.9482,81.765441 122.3609,82.031881 118.88137,80.149876 L118.88137,80.149876 Z M129.5887,71.885979 C132.97004,68.597466 132.79606,68.434322 128.04951,70.442657 C123.68368,72.2899 119.92357,77.311876 122.28138,78.146539 C123.18763,78.46735 124.53483,77.83931 125.27517,76.750895 C126.0155,75.66248 127.95659,73.473268 129.5887,71.885979 L129.5887,71.885979 Z M224.98229,78.287304 C223.32295,77.160556 222.73839,75.589055 223.18021,73.442723 C223.98433,69.536446 221.23865,66.925979 218.98189,69.451151 C218.13055,70.403739 217.81212,72.098175 218.27427,73.216565 C218.88643,74.697978 218.34457,75.25 216.27841,75.25 C213.96722,75.25 213.44227,74.486486 213.44227,71.125 C213.44227,65.923315 215.49692,64 221.05383,64 C224.99498,64 225.52357,64.439261 226.31867,68.375 C227.14986,72.489401 228.70303,73.933002 230.0171,71.8125 C230.33663,71.296875 231.00784,68.248845 231.50868,65.0391 C232.31572,59.866961 232.14383,59.244471 229.9976,59.566069 C227.22696,59.981226 224.1904,58.114251 224.25357,56.034444 C224.27717,55.25925 225.18571,55.716885 226.27266,57.051412 C227.35963,58.385939 228.24895,58.920314 228.24895,58.238913 C228.24895,57.55751 227.52169,56.324633 226.63281,55.499185 C225.37529,54.33143 225.40796,52.993417 226.77999,49.469934 C228.11672,46.03709 228.16147,44.722332 226.96495,44.035615 C225.86366,43.403551 226.46564,41.93884 228.9565,39.189866 C231.60044,36.271956 233.63017,35.260311 236.78149,35.289754 C244.94071,35.365984 245.54783,36.726029 245.27987,54.327415 C245.11793,64.965889 244.49288,70.66532 243.37423,71.704146 C242.45868,72.554365 241.70958,73.89407 241.70958,74.681265 C241.70958,75.468461 240.54632,77.090129 239.12457,78.284971 C236.66017,80.356064 236.4711,80.338601 235.07183,77.910629 C233.84029,75.773697 234.25629,74.744267 237.65684,71.513826 C242.66658,66.754672 242.97479,61.301654 238.68094,53.395324 C235.33469,47.233844 234.27381,46.590135 233.28025,50.118361 C232.81956,51.754319 233.60354,52.905699 235.81539,53.841562 C237.57652,54.586725 239.01482,55.630337 239.01158,56.160701 C238.99528,58.840649 232.42749,74.064999 230.10462,76.807287 C227.77497,79.557607 227.12822,79.744471 224.98229,78.287304 L224.98229,78.287304 Z M244.31637,66.742795 C244.24847,65.055572 244.00536,65.142102 243.1209,67.168397 C242.5103,68.567266 241.03438,70.464266 239.84105,71.383954 C238.64774,72.30364 237.69053,73.690361 237.71393,74.465556 C237.73733,75.24075 239.25164,74.296757 241.07908,72.367795 C242.90652,70.438833 244.36331,67.907582 244.31637,66.742795 L244.31637,66.742795 Z M242.66833,49.444515 C240.83553,43.58276 240.59082,43.368324 235.51931,43.179967 L230.26805,42.984936 L234.84383,43.804967 C238.92371,44.53613 239.62554,45.282777 241.31981,50.694515 C242.36493,54.032747 243.52288,56.482779 243.89304,56.139029 C244.26321,55.795279 243.71209,52.782747 242.66833,49.444515 L242.66833,49.444515 Z M243.08265,40.905207 C242.14616,39.857344 240.39409,39.012507 239.18916,39.027795 C237.55603,39.048525 237.84985,39.663136 240.3434,41.442304 C244.09691,44.120462 245.67891,43.810272 243.08264,40.905207 L243.08265,40.905207 Z M236.32533,38.713207 C236.32533,37.981577 235.47003,38.103064 234.30623,39 C233.19573,39.855861 232.28714,40.750833 232.28714,40.988825 C232.28714,41.226817 233.19573,41.097763 234.30623,40.702033 C235.41674,40.306305 236.32533,39.411334 236.32533,38.713208 L236.32533,38.713207 Z M133.77218,78.146107 C134.74387,77.785019 135.90485,77.829427 136.35214,78.244797 C136.79942,78.660162 136.00441,78.955598 134.58544,78.901322 C133.01734,78.841352 132.69839,78.545146 133.77218,78.146113 L133.77218,78.146107 Z M149.16778,66.888342 C150.46336,66.573934 152.58341,66.573934 153.879,66.888342 C155.17458,67.202753 154.11456,67.459996 151.52339,67.459996 C148.93222,67.459996 147.87219,67.202753 149.16778,66.888342 L149.16778,66.888342 Z M192.75259,59.596076 C192.09134,57.995849 192.44412,57.923163 194.96421,59.140394 C199.2559,61.21334 199.4196,61.5 196.31182,61.5 C194.78696,61.5 193.18532,60.643234 192.75259,59.596076 L192.75259,59.596076 Z M193.92436,54 C193.4668,53.3125 193.73392,52.75 194.51794,52.75 C195.30197,52.75 195.94345,53.3125 195.94345,54 C195.94345,54.6875 195.67634,55.25 195.34986,55.25 C195.02339,55.25 194.38191,54.6875 193.92436,54 L193.92436,54 Z M159.59976,48.862381 C156.74601,48.024695 156.99074,47.906961 161.21014,48.087669 C163.94668,48.204869 166.62198,47.895589 167.15526,47.40038 C167.68852,46.905171 169.18485,46.5 170.48043,46.5 C171.77602,46.5 173.03795,46.023759 173.28474,45.441687 C173.89506,44.002136 187.61887,42.615794 188.47814,43.906891 C188.85547,44.473861 186.60087,45.394838 183.4679,45.953504 L177.77161,46.969262 L182.48283,47.448753 C185.074,47.712471 187.62304,48.314639 188.14737,48.786904 C189.48857,49.994946 163.69045,50.063155 159.59976,48.862384 L159.59976,48.862381 Z M104.6696,44.607945 C104.5718,42.192314 105.0644,38.817314 105.76424,37.107945 C106.83818,34.48485 107.91017,34 112.63579,34 L118.23488,34 L114.65064,36.618158 C112.67931,38.058144 109.85953,41.433144 108.38447,44.118158 C106.90942,46.803171 105.51014,49 105.27497,49 C105.03981,49 104.76739,47.023575 104.6696,44.607945 L104.6696,44.607945 Z M167.01264,44.014318 C166.54106,43.305742 167.08144,43.096184 168.27925,43.523054 C170.6112,44.354042 171.03786,45.25 169.10164,45.25 C168.405,45.25 167.46494,44.693943 167.01264,44.014318 L167.01264,44.014318 Z M153.23158,43.133761 C154.54126,42.816833 156.35845,42.837675 157.26977,43.180071 C158.1811,43.522475 157.10955,43.781781 154.88854,43.756306 C152.66754,43.730826 151.92191,43.450683 153.23158,43.133753 L153.23158,43.133761 Z M96.334824,37.337513 C96.334824,35.205309 104.88895,23.996827 107.927,22.148289 C113.33446,18.85803 112.94537,20.577502 107.07861,25.897406 C104.13087,28.570386 101.71907,31.399781 101.71907,32.18495 C101.71907,32.97012 100.50762,34.630642 99.02695,35.875 C97.54628,37.119357 96.334824,37.777489 96.334824,37.337513 L96.334824,37.337513 Z M153.96312,36.896107 C154.93481,36.535019 156.09579,36.579428 156.54308,36.994797 C156.99037,37.410162 156.19535,37.705598 154.77638,37.651322 C153.20828,37.591342 152.88933,37.295146 153.96312,36.896113 L153.96312,36.896107 Z M125.31378,34.557664 C123.85437,33.533109 121.85429,32.982055 120.86918,33.3331 C119.83225,33.702609 119.45274,33.4084 119.96786,32.634399 C120.47671,31.869806 122.36386,31.648491 124.37591,32.117445 L127.89419,32.937457 L125.23862,30.161842 L122.58304,27.386227 L125.53673,28.824835 C129.07727,30.549285 130.76948,32.75 128.55494,32.75 C127.36985,32.75 127.3916,33.22775 128.64024,34.625 C130.78293,37.022525 128.76664,36.981711 125.3137,34.55766 L125.31378,34.557664 Z M79.282491,33.375 C79.609275,32 80.351165,29.79835 80.931137,28.482444 C81.72963,26.670735 81.55282,26.33829 80.202843,27.11308 C78.971996,27.819497 78.739845,27.655765 79.452992,26.58422 C81.722584,23.174016 82.8813,27.435392 80.815213,31.594021 C79.645432,33.94856 78.955708,34.75 79.282491,33.375 L79.282491,33.375 Z M139.97238,33.906156 C137.69115,33.291051 134.66251,31.591911 133.24207,30.13029 L130.65942,27.472795 L136.19561,30.148271 C139.24052,31.619782 143.63085,32.947779 145.9519,33.099372 C148.27294,33.250968 150.17318,33.796875 150.17464,34.3125 C150.17864,35.52467 145.24643,35.328249 139.97238,33.906156 L139.97238,33.906156 Z M92.955217,31.5 C93.672496,28.789212 93.549778,28.640042 92.029384,30.374596 C90.751239,31.832782 89.867554,32.002008 88.765678,30.999596 C87.651773,29.98625 87.969444,28.684886 89.974453,26.047771 C92.390118,22.870546 92.838088,22.70924 93.980669,24.605217 C95.136904,26.523854 95.695757,26.368169 99.50264,23.066902 C103.56616,19.54307 111.97082,15.603451 113.12947,16.67942 C113.43504,16.96318 110.24423,18.884536 106.03879,20.949102 C100.75185,23.544611 97.4261,26.233631 95.26044,29.663929 C93.050216,33.164801 92.371726,33.705215 92.955217,31.5 L92.955217,31.5 Z M93.599895,27.645834 C93.623475,28.619791 94.006222,29.07909 94.45052,28.666498 C94.894817,28.253904 94.8409,27.28909 94.330677,26.522466 C93.259319,24.912675 89.604512,27.131696 89.604512,29.391967 C89.604512,30.126689 90.493839,29.635939 91.580801,28.301412 C92.970433,26.59527 93.569786,26.400665 93.599895,27.645834 L93.599895,27.645834 Z M108.44939,31.5 C108.44939,30.8125 109.28382,30.25 110.30366,30.25 C111.32351,30.25 112.96437,29.347651 113.95002,28.24478 C114.93566,27.14191 117.12988,25.749582 118.82604,25.150719 C120.52223,24.551856 121.92928,23.06358 121.95282,21.843439 C122.00442,19.172349 125.58319,14.494372 126.74776,15.575839 C127.20283,15.998422 126.60336,18.153156 125.41561,20.364135 C122.82637,25.183989 122.84888,24.936672 124.93865,25.60394 C125.86408,25.899429 125.51625,25.982417 124.16573,25.788361 C122.8152,25.594305 120.58957,26.476209 119.21988,27.748149 C114.62696,32.013281 108.44939,34.165215 108.44939,31.5 L108.44939,31.5 Z M183.5765,29.396107 C184.54818,29.035019 185.70917,29.079428 186.15646,29.494797 C186.60375,29.910162 185.80872,30.205598 184.38976,30.151322 C182.82166,30.091352 182.50271,29.795146 183.5765,29.396113 L183.5765,29.396107 Z M40.078389,26.449154 C38.298489,23.80248 38.908928,21.5 41.39052,21.5 C42.267575,21.5 42.145769,22.256614 41.076013,23.453603 C39.542179,25.169864 39.808338,25.312139 43.266804,24.624703 C46.527026,23.97667 46.793871,24.083769 44.819622,25.247925 C43.508465,26.021075 42.787052,27.18158 43.216484,27.826825 C43.645915,28.472071 43.501495,29 42.895555,29 C42.289612,29 41.021888,27.852119 40.078389,26.449154 L40.078389,26.449154 Z M147.23281,28.146107 C148.20449,27.785019 149.36549,27.829428 149.81277,28.244797 C150.26005,28.660162 149.46503,28.955598 148.04607,28.901322 C146.47797,28.841352 146.15902,28.545146 147.23281,28.146113 L147.23281,28.146107 Z M152.19642,26.5 C152.65397,25.8125 153.29545,25.25 153.62192,25.25 C153.9484,25.25 154.21551,25.8125 154.21551,26.5 C154.21551,27.1875 153.57403,27.75 152.79,27.75 C152.00598,27.75 151.73887,27.1875 152.19642,26.5 L152.19642,26.5 Z M132.89135,22.75 C129.90884,19.003821 130.29861,18.0352 133.92988,20.169196 C135.3751,21.018515 137.22971,26.5 136.07185,26.5 C135.9646,26.5 134.53341,24.8125 132.89135,22.75 L132.89135,22.75 Z M142.78351,25.264317 C142.31193,24.555742 142.85231,24.346184 144.05012,24.773054 C146.38208,25.604042 146.80873,26.5 144.87252,26.5 C144.17588,26.5 143.23581,25.943943 142.78351,25.264317 L142.78351,25.264317 Z M35.76201,21.647542 C35.76201,20.960042 36.367738,20.049899 37.108073,19.625 C37.848407,19.200101 38.454135,19.414957 38.454135,20.102457 C38.454135,20.789957 37.848407,21.700101 37.108073,22.125 C36.367738,22.549899 35.76201,22.335042 35.76201,21.647542 L35.76201,21.647542 Z M43.838385,21.460769 C43.838385,20.794846 44.746978,20.25 45.857479,20.25 C46.967981,20.25 47.876573,20.471069 47.876573,20.741264 C47.876573,21.011459 46.967981,21.556305 45.857479,21.952033 C44.746978,22.347761 43.838385,22.126693 43.838385,21.460769 L43.838385,21.460769 Z M84.220262,21.69786 C84.220262,20.723503 93.119695,17.7152 95.817969,17.777452 C96.923237,17.802952 85.908342,22.75 84.746297,22.75 C84.456978,22.75 84.220262,22.276536 84.220262,21.69786 L84.220262,21.69786 Z M98.51775,19.360469 C97.70327,18.604124 105.11899,14.19906 110.32235,12.34833 C112.53134,11.56264 112.63235,11.706849 111.08544,13.437745 C108.74941,16.051615 99.59852,20.364115 98.51775,19.360469 L98.51775,19.360469 Z M34.378939,15.632339 C31.136885,13.569458 26.339572,9.098427 26.339572,8.1397583 C26.339572,7.2733062 30.973417,10.165484 35.711163,13.988964 C40.720241,18.031413 39.845397,19.110581 34.378939,15.632339 L34.378939,15.632339 Z M156.90764,15.2821 C156.90764,14.576945 157.66479,13.991386 158.59022,13.980859 C159.73436,13.967849 159.62665,13.530095 158.2537,12.612944 C156.5717,11.489354 156.64418,11.387454 158.68773,12.002603 C160.03695,12.40874 162.38153,12.124427 163.8979,11.370807 C165.90846,10.371577 166.40563,10.375197 165.73412,11.384177 C164.33696,13.483498 156.90764,16.764409 156.90764,15.282097 L156.90764,15.2821 Z M54.606886,13.926229 C54.606886,13.198155 55.212614,12.950101 55.952948,13.375 C56.693283,13.799899 57.299011,14.395595 57.299011,14.698771 C57.299011,15.001947 56.693283,15.25 55.952948,15.25 C55.212614,15.25 54.606886,14.654303 54.606886,13.926229 L54.606886,13.926229 Z M126.27519,14.367339 C125.01828,13.935342 125.22743,12.929239 127.08844,10.455385 C128.46638,8.6236733 129.99654,5.578125 130.48876,3.6875 C130.99852,1.7295946 132.30377,0.25 133.5212,0.25 C135.03671,0.25 135.37056,0.8865216 134.66852,2.4375 C134.12394,3.640625 133.40934,5.7616501 133.08052,7.1508892 C132.20992,10.829158 128.23734,15.041721 126.27519,14.367339 L126.27519,14.367339 Z M144.79308,14 C143.57989,13.271925 143.41386,12.780642 144.37711,12.769141 C145.25883,12.758641 146.35462,13.3125 146.81217,14 C147.845,15.551906 147.37902,15.551906 144.79308,14 L144.79308,14 Z M74.124792,12.165759 C78.707026,10.11985 82.771647,9.633384 80.787802,11.368309 C80.084484,11.983379 77.388994,12.820099 74.797824,13.227687 L70.086605,13.968757 L74.124792,12.165759 L74.124792,12.165759 Z M32.317611,8.4147543 C30.880525,7.405369 30.387721,6.561619 31.222489,6.5397543 C32.057257,6.5178894 33.494314,7.34375 34.415948,8.375 C36.543792,10.755923 35.674241,10.772397 32.317611,8.414754 L32.317611,8.4147543 Z M82.874199,9.758736 C82.874199,9.488541 83.814251,8.9324839 84.963205,8.523054 C86.161101,8.0961836 86.701399,8.3057429 86.229825,9.014318 C85.439341,10.202072 82.874199,10.771127 82.874199,9.758736 L82.874199,9.758736 Z M170.09922,7.4260364 C171.50586,5.8521076 171.50376,5.3566031 170.08842,4.7580961 C169.1321,4.3538358 169.78839,4.3593978 171.54686,4.7704591 C173.90682,5.3221211 174.46921,5.1048535 173.6945,3.9407848 C173.01297,2.9167533 173.18904,2.6760194 174.1966,3.2542834 C175.05001,3.7440866 177.09558,3.2684974 178.74227,2.197419 C182.6242,-0.3275535 185.33718,-0.26990674 181.81028,2.26261 C177.0596,5.6738677 168.15789,9.598814 170.09971,7.4260396 L170.09922,7.4260364 Z M90.950574,7.258736 C90.950574,6.9885407 91.890632,6.4324839 93.039577,6.023054 C94.237476,5.5961836 94.777775,5.8057429 94.3062,6.514318 C93.515717,7.7020721 90.950574,8.2711274 90.950574,7.258736 L90.950574,7.258736 Z M85.566324,5.418376 C88.844439,3.6065384 94.512266,2.2895495 92.969668,3.6981214 C92.229334,4.3741307 89.806421,5.2888304 87.585418,5.7307872 C84.949635,6.2552809 84.248433,6.146785 85.566324,5.418376 L85.566324,5.418376 Z M160.60931,5.6721491 C161.53472,5.3253838 163.04904,5.3253838 163.97447,5.6721491 C164.89988,6.0189145 164.14272,6.3026316 162.29189,6.3026316 C160.44105,6.3026316 159.68389,6.0189145 160.60931,5.6721491 L160.60931,5.6721491 Z M81.528136,3.4972814 C81.528136,3.2207862 83.496753,2.3847643 85.90284,1.6394547 C89.905179,0.3996907 90.055141,0.442481 87.664663,2.1421734 C85.256561,3.8543951 81.528136,4.6777305 81.528136,3.4972814 L81.528136,3.4972814 Z M158.2537,2.75 C159.3642,2.0835551 161.18139,1.5382819 162.29189,1.5382819 C164.08663,1.5382819 164.08663,1.6729173 162.29189,2.75 C161.18139,3.4164449 159.3642,3.9617181 158.2537,3.9617181 C156.45896,3.9617181 156.45896,3.8270827 158.2537,2.75 L158.2537,2.75 Z M138.73579,1.5 C139.19335,0.8125 140.13769,0.25 140.83433,0.25 C141.53097,0.25 142.10095,0.8125 142.10095,1.5 C142.10095,2.1875 141.15661,2.75 140.00241,2.75 C138.84822,2.75 138.27824,2.1875 138.73579,1.5 L138.73579,1.5 Z" transform="matrix(-1 0 0 1 246 0)" opacity=".451"/>
</svg>
